<svg xmlns="http://www.w3.org/2000/svg" xmlns:xlink="http://www.w3.org/1999/xlink" width="500" zoomAndPan="magnify" viewBox="0 0 375 374.999991" height="500" preserveAspectRatio="xMidYMid meet" version="1.0"><defs><clipPath id="id1"><path d="M 139.472656 65 L 264 65 L 264 309.992188 L 139.472656 309.992188 Z M 139.472656 65 " clip-rule="nonzero"/></clipPath></defs><path stroke-linecap="butt" transform="matrix(9.772962, 0.000000000000004476, -0.000000000000004526, 9.880633, 89.709272, 44.85208)" fill="none" stroke-linejoin="miter" d="M 0.000170398 -0.000052401 L 10.207702 -0.000052401 " stroke="rgb(0%, 0%, 0%)" stroke-width="1" stroke-opacity="1" stroke-miterlimit="4"/><path stroke-linecap="butt" transform="matrix(9.772962, 0.000000000000004476, -0.000000000000004526, 9.880633, 185.764548, 330.422352)" fill="none" stroke-linejoin="miter" d="M 0.000110253 -0.0000482664 L 10.207642 -0.0000482664 " stroke="rgb(0%, 0%, 0%)" stroke-width="1" stroke-opacity="1" stroke-miterlimit="4"/><path stroke-linecap="butt" transform="matrix(0.000000000000000597, 9.746154, -9.880633, 0.000000000000000605, 190.443683, 39.913386)" fill="none" stroke-linejoin="miter" d="M 0.00006941 -0.000164899 L 30.474029 -0.000164899 " stroke="rgb(0%, 0%, 0%)" stroke-width="1" stroke-opacity="1" stroke-miterlimit="4"/><g clip-path="url(#id1)"><path fill="rgb(0%, 0%, 0%)" d="M 139.773438 190.152344 C 139.695312 190 139.605469 189.851562 139.542969 189.695312 C 139.472656 189.523438 139.429688 189.347656 139.378906 189.171875 C 139.332031 189.011719 139.273438 188.855469 139.242188 188.691406 C 139.207031 188.515625 139.199219 188.339844 139.183594 188.164062 C 139.167969 187.992188 139.140625 187.824219 139.140625 187.652344 C 139.140625 187.480469 139.167969 187.3125 139.183594 187.144531 C 139.199219 186.96875 139.210938 186.792969 139.242188 186.617188 C 139.273438 186.453125 139.332031 186.296875 139.378906 186.136719 C 139.429688 185.960938 139.472656 185.78125 139.542969 185.609375 C 139.605469 185.453125 139.695312 185.304688 139.773438 185.15625 C 139.859375 184.992188 139.9375 184.828125 140.039062 184.671875 C 140.136719 184.519531 140.261719 184.386719 140.378906 184.242188 C 140.480469 184.121094 140.5625 183.988281 140.675781 183.871094 L 254.457031 67.214844 C 256.554688 65.066406 260.003906 65.015625 262.160156 67.105469 C 264.316406 69.195312 264.367188 72.628906 262.269531 74.777344 L 152.175781 187.652344 L 262.269531 300.527344 C 264.367188 302.675781 264.316406 306.109375 262.160156 308.199219 C 261.101562 309.222656 259.730469 309.734375 258.363281 309.734375 C 256.945312 309.734375 255.527344 309.183594 254.457031 308.089844 L 140.675781 191.433594 C 140.5625 191.316406 140.480469 191.183594 140.378906 191.0625 C 140.265625 190.921875 140.140625 190.785156 140.039062 190.632812 C 139.9375 190.480469 139.859375 190.3125 139.773438 190.152344 Z M 139.773438 190.152344 " fill-opacity="1" fill-rule="nonzero"/></g><path stroke-linecap="butt" transform="matrix(4.51014, 0, 0, 4.5, 181.264769, 337.355661)" fill="none" stroke-linejoin="miter" d="M 0.000189884 -0.0000427327 L 23.116505 -0.0000427327 " stroke="rgb(100%, 100%, 100%)" stroke-width="1" stroke-opacity="1" stroke-miterlimit="4"/><path stroke-linecap="butt" transform="matrix(4.503493, 0, 0, 4.5, 89.709272, 37.661764)" fill="none" stroke-linejoin="miter" d="M 0.000369778 -0.000357226 L 23.483878 -0.000357226 " stroke="rgb(100%, 100%, 100%)" stroke-width="1" stroke-opacity="1" stroke-miterlimit="4"/><path stroke-linecap="butt" transform="matrix(0.000000000000000276, -4.500549, 4.5, 0.000000000000000276, 183.51052, 337.504461)" fill="none" stroke-linejoin="miter" d="M 0.000123271 0.000266289 L 63.994051 0.000266289 " stroke="rgb(100%, 100%, 100%)" stroke-width="1" stroke-opacity="1" stroke-miterlimit="4"/><path stroke-linecap="butt" transform="matrix(-0.0349254, -4.502591, 4.499864, -0.0349043, 197.635744, 325.479617)" fill="none" stroke-linejoin="miter" d="M -0.000190831 0.000215243 L 64.461826 -0.000349776 " stroke="rgb(100%, 100%, 100%)" stroke-width="1" stroke-opacity="1" stroke-miterlimit="4"/></svg>